<?xml version="1.0" encoding="utf-8"?>
<!-- Generator: Adobe Illustrator 21.0.0, SVG Export Plug-In . SVG Version: 6.00 Build 0)  -->
<svg version="1.1" id="Capa_1" xmlns="http://www.w3.org/2000/svg" xmlns:xlink="http://www.w3.org/1999/xlink" x="0px" y="0px"
	 viewBox="0 0 477.2 477.2" style="enable-background:new 0 0 477.2 477.2;" xml:space="preserve">
<g>
	<g>
		<path d="M130.2,247L330,446.8c4.7,4.7,12.2,4.7,17,0c4.7-4.7,4.7-12.2,0-17L155.6,238.6L346.9,47.3c4.7-4.7,4.7-12.2,0-17
			c-2.3-2.3-5.4-3.6-8.4-3.6s-6.1,1.2-8.4,3.6L130.3,230.2C125.6,234.8,125.6,242.4,130.2,247z"/>
		<path d="M338.4,471.8c-8.6,0-17.1-3.3-23.6-9.8L115,262.2l0,0c-6.3-6.3-9.8-14.7-9.7-23.7c0-8.9,3.5-17.3,9.9-23.5L314.8,15.3
			c6.2-6.3,14.8-9.9,23.7-9.9c8.7,0,17.3,3.6,23.6,9.8c13,13,13,34.2,0,47.3L186,238.6l176.1,176.1c13,13,13,34.2,0,47.3
			C355.6,468.5,347,471.8,338.4,471.8z"/>
	</g>
</g>
</svg>
