<?xml version="1.0" encoding="utf-8"?>
<!-- Generator: Adobe Illustrator 21.0.0, SVG Export Plug-In . SVG Version: 6.00 Build 0)  -->
<svg version="1.1" id="Capa_1" xmlns="http://www.w3.org/2000/svg" xmlns:xlink="http://www.w3.org/1999/xlink" x="0px" y="0px"
	 viewBox="0 0 477.2 477.2" style="enable-background:new 0 0 477.2 477.2;" xml:space="preserve">
<g>
	<g>
		<path d="M244.7,314.3l112.6-112.6c2.6-2.6,2.6-6.9,0-9.6c-2.6-2.6-6.9-2.6-9.6,0L239.9,300L132.1,192.2c-2.6-2.6-6.9-2.6-9.6,0
			c-1.3,1.3-2,3-2,4.7c0,1.7,0.7,3.4,2,4.7l112.7,112.6C237.8,316.9,242.1,316.9,244.7,314.3z"/>
		<path d="M371.4,197c0,4.8-1.9,9.6-5.5,13.3L253.2,322.9l0,0c-3.6,3.6-8.3,5.5-13.4,5.5c-5,0-9.7-2-13.2-5.6L114.1,210.3
			c-3.6-3.5-5.6-8.3-5.6-13.4c0-4.9,2-9.7,5.5-13.3c7.3-7.3,19.3-7.3,26.7,0l99.2,99.2l99.2-99.2c7.3-7.3,19.3-7.3,26.7,0
			C369.5,187.3,371.4,192.2,371.4,197z"/>
	</g>
</g>
<path d="M239.9,471.8c-61.4,0-119-23.9-162.4-67.3S10.2,303.4,10.2,242.1S34.1,123,77.5,79.6s101.1-67.3,162.4-67.3
	s119,23.9,162.4,67.3s67.3,101.1,67.3,162.4s-23.9,119-67.3,162.4S301.3,471.8,239.9,471.8z M239.9,52.4
	c-104.6,0-189.7,85.1-189.7,189.7s85.1,189.7,189.7,189.7s189.7-85.1,189.7-189.7S344.5,52.4,239.9,52.4z"/>
</svg>
