<svg xmlns="http://www.w3.org/2000/svg" viewBox="0 0 141.49 141.49"><defs><style>.cls-1{fill-rule:evenodd;}</style></defs><title>Ресурс 3</title><g id="Слой_2" data-name="Слой 2"><g id="Иконки"><path id="instagram" class="cls-1" d="M125.17,59.85H112.85a43.53,43.53,0,1,1-84.21,0H16.32v59.87a5.44,5.44,0,0,0,5.45,5.44h98a5.44,5.44,0,0,0,5.45-5.44Zm0-38.09a5.44,5.44,0,0,0-5.45-5.44H103.4A5.44,5.44,0,0,0,98,21.76V38.09a5.44,5.44,0,0,0,5.44,5.44h16.32a5.44,5.44,0,0,0,5.45-5.44ZM70.75,43.53A27.21,27.21,0,1,0,98,70.74,27.21,27.21,0,0,0,70.75,43.53m54.42,98H16.32A16.33,16.33,0,0,1,0,125.16V16.32A16.32,16.32,0,0,1,16.32,0H125.17a16.32,16.32,0,0,1,16.32,16.32V125.16a16.32,16.32,0,0,1-16.32,16.33"/></g></g></svg>