<svg xmlns="http://www.w3.org/2000/svg" viewBox="0 0 167.36 169.13"><defs><style>.cls-1{fill:#fff;}</style></defs><title>Ресурс 6</title><g id="Слой_2" data-name="Слой 2"><g id="Иконки"><path class="cls-1" d="M121.46,81.74l5.69,24.09L133,133l-27.16-5.84-24.1-5.67-65-65A79,79,0,1,0,57.12,17.36L121.46,81.7S121.49,81.73,121.46,81.74Z"/><path class="cls-1" d="M122.73,104.24l-4.24-18.62a66.56,66.56,0,0,0-32.86,32.87l18.62,4.24A41.83,41.83,0,0,1,122.73,104.24Z"/><path class="cls-1" d="M57.12,17.36,39.75,0A122.43,122.43,0,0,0,0,39.75L16.7,56.45A79.35,79.35,0,0,1,57.12,17.36Z"/></g></g></svg>