<?xml version="1.0" encoding="utf-8"?>
<!-- Generator: Adobe Illustrator 21.0.0, SVG Export Plug-In . SVG Version: 6.00 Build 0)  -->
<svg version="1.1" id="Capa_1" xmlns="http://www.w3.org/2000/svg" xmlns:xlink="http://www.w3.org/1999/xlink" x="0px" y="0px"
	 viewBox="0 0 477.2 477.2" style="enable-background:new 0 0 477.2 477.2;" xml:space="preserve">
<g>
	<g>
		<path d="M346.9,230.2L147.1,30.4c-2.3-2.4-5.4-3.6-8.4-3.6c-3,0-6.1,1.2-8.4,3.6c-4.7,4.7-4.7,12.2,0,17l191.3,191.3L130.2,429.9
			c-4.7,4.7-4.7,12.2,0,17c4.7,4.7,12.2,4.7,17,0L347,247C351.6,242.4,351.6,234.8,346.9,230.2z"/>
		<path d="M138.7,471.8c8.6,0,17.1-3.3,23.6-9.8l199.8-199.8l0,0c6.3-6.3,9.8-14.7,9.7-23.7c0-8.9-3.5-17.3-9.9-23.5L162.3,15.3
			c-6.2-6.3-14.8-9.9-23.7-9.9c-8.7,0-17.3,3.6-23.6,9.8c-13,13-13,34.2,0,47.3l176.1,176.1L115.1,414.7c-13,13-13,34.2,0,47.3
			C121.6,468.5,130.1,471.8,138.7,471.8z"/>
	</g>
</g>
</svg>
