<?xml version="1.0" encoding="utf-8"?>
<!-- Generator: Adobe Illustrator 21.0.0, SVG Export Plug-In . SVG Version: 6.00 Build 0)  -->
<svg version="1.1" id="Capa_1" xmlns="http://www.w3.org/2000/svg" xmlns:xlink="http://www.w3.org/1999/xlink" x="0px" y="0px"
	 viewBox="0 0 60 60" style="enable-background:new 0 0 60 60;" xml:space="preserve">
<style type="text/css">
	.st0{stroke:#000000;stroke-width:2;stroke-miterlimit:10;}
</style>
<path class="st0" d="M30,2C14.6,2,2,14.6,2,30s12.6,28,28,28s28-12.6,28-28S45.4,2,30,2z M30,56.1C15.6,56.1,3.9,44.4,3.9,30
	S15.6,3.9,30,3.9S56.1,15.6,56.1,30S44.4,56.1,30,56.1z"/>
<path class="st0" d="M31.2,15.1c-0.5,0-0.8,0.3-0.8,0.7v15.6H17.9c-0.5,0-0.8,0.3-0.8,0.7s0.4,0.7,0.8,0.7h13.3
	c0.5,0,0.8-0.3,0.8-0.7V15.8C32,15.4,31.6,15.1,31.2,15.1z"/>
</svg>
