<svg xmlns="http://www.w3.org/2000/svg" viewBox="0 0 166.1 134.99"><title>twitter</title><g id="Слой_2" data-name="Слой 2"><g id="Иконки"><path id="twitter" d="M166.1,16a68.13,68.13,0,0,1-19.57,5.37,34.18,34.18,0,0,0,15-18.85,68.18,68.18,0,0,1-21.64,8.27A34.11,34.11,0,0,0,81.8,41.84,96.74,96.74,0,0,1,11.56,6.24,34.11,34.11,0,0,0,22.11,51.73,33.91,33.91,0,0,1,6.67,47.47c0,.14,0,.29,0,.43A34.1,34.1,0,0,0,34,81.31a34.18,34.18,0,0,1-15.39.58,34.11,34.11,0,0,0,31.83,23.66A68.36,68.36,0,0,1,8.13,120.15,69,69,0,0,1,0,119.67,96.43,96.43,0,0,0,52.24,135c62.68,0,97-51.93,97-97q0-2.22-.1-4.41A69.25,69.25,0,0,0,166.1,16Z"/></g></g></svg>