<svg xmlns="http://www.w3.org/2000/svg" viewBox="0 0 170.86 97.47"><defs><style>.cls-1{fill-rule:evenodd;}</style></defs><title>vk_alt</title><g id="Слой_2" data-name="Слой 2"><g id="Иконки"><path id="vk_alt" class="cls-1" d="M83.6,97.06H93.81s3.08-.34,4.66-2,1.4-4.49,1.4-4.49-.2-13.7,6.16-15.72,14.32,13.24,22.85,19.1c6.45,4.43,11.36,3.46,11.36,3.46l22.82-.32s11.94-.74,6.28-10.12c-.46-.77-3.3-6.94-17-19.63C138.06,54,140,56.18,157.21,33.21c10.5-14,14.69-22.53,13.38-26.19-1.25-3.49-9-2.57-9-2.57l-25.69.16a5.84,5.84,0,0,0-3.32.58A7.17,7.17,0,0,0,130.35,8a149.06,149.06,0,0,1-9.49,20c-11.44,19.42-16,20.45-17.88,19.25-4.35-2.81-3.26-11.29-3.26-17.32,0-18.83,2.86-26.68-5.56-28.71C91.36.54,89.3.1,82.16,0,73-.07,65.24,0,60.84,2.2,57.92,3.63,55.66,6.82,57,7c1.7.22,5.54,1,7.58,3.81,2.63,3.58,2.54,11.63,2.54,11.63s1.51,22.16-3.53,24.91c-3.46,1.89-8.21-2-18.41-19.59A163.89,163.89,0,0,1,36,8.76,7.64,7.64,0,0,0,33.93,5.9,10.61,10.61,0,0,0,30,4.3L5.57,4.46s-3.66.1-5,1.7c-1.2,1.42-.1,4.35-.1,4.35S19.57,55.22,41.22,77.76C61.06,98.42,83.6,97.06,83.6,97.06Z"/></g></g></svg>